<?xml version="1.0" encoding="UTF-8" standalone="no"?>
<svg
        viewBox="0 0 191.99974 192"
        version="1.1"
        id="svg11"
        width="191.99973"
        height="192"
        xmlns:xlink="http://www.w3.org/1999/xlink"
        xmlns="http://www.w3.org/2000/svg"
>
  <defs
     id="defs4">
    <linearGradient
       id="Deg_text">
      <stop
         style="stop-color:#3465be;stop-opacity:1;"
         offset="0"
         id="stop13547" />
      <stop
         style="stop-color:#362f94;stop-opacity:1;"
         offset="0.34721336"
         id="stop13549" />
      <stop
         style="stop-color:#3465be;stop-opacity:1;"
         offset="0.65274751"
         id="stop13551" />
      <stop
         style="stop-color:#362f94;stop-opacity:1;"
         offset="1"
         id="stop13553" />
    </linearGradient>
    <linearGradient
       id="Deg_back">
      <stop
         style="stop-color:#3465be;stop-opacity:1;"
         offset="0"
         id="stop28307" />
      <stop
         style="stop-color:#362f94;stop-opacity:1;"
         offset="0.34721336"
         id="stop962" />
      <stop
         style="stop-color:#3465be;stop-opacity:1;"
         offset="0.65274751"
         id="stop964" />
      <stop
         style="stop-color:#362f94;stop-opacity:1;"
         offset="1"
         id="stop28309" />
    </linearGradient>
    <linearGradient
       id="linearGradient28249">
      <stop
         style="stop-color:#000000;stop-opacity:1;"
         offset="0"
         id="stop28247" />
    </linearGradient>
    <style
       id="style2">.cls-1{fill:#fff;}</style>
    <linearGradient
       xlink:href="#Deg_back"
       id="linearGradient13545"
       x1="0.17677669"
       y1="0.18539083"
       x2="169.06905"
       y2="128.17172"
       gradientUnits="userSpaceOnUse"
       gradientTransform="matrix(1.4999331,0,0,1.4999331,-30.665268,0)" />
    <linearGradient
       xlink:href="#Deg_text"
       id="linearGradient34750"
       x1="77.789001"
       y1="80.000008"
       x2="171.54227"
       y2="111.75001"
       gradientUnits="userSpaceOnUse" />
    <linearGradient
       xlink:href="#Deg_text"
       id="linearGradient696"
       gradientUnits="userSpaceOnUse"
       x1="77.789001"
       y1="80.000008"
       x2="171.54227"
       y2="111.75001" />
    <linearGradient
       xlink:href="#Deg_text"
       id="linearGradient698"
       gradientUnits="userSpaceOnUse"
       x1="77.789001"
       y1="80.000008"
       x2="171.54227"
       y2="111.75001" />
  </defs>
  <rect
     style="stroke-width:0;stroke-linejoin:round;stroke-miterlimit:11.1"
     id="rect311"
     width="192"
     height="192"
     x="-1.9919428e-07"
     y="0" />
  <rect
     style="fill:url(#linearGradient13545);fill-opacity:1;fill-rule:evenodd;stroke-width:1.49994"
     id="rect13537"
     width="253.32712"
     height="191.99771"
     x="-30.665268"
     y="0" />
  <g
     id="图层_2"
     data-name="图层 2"
     transform="translate(32.429775,47.82)">
    <g
       id="Discord_Logos"
       data-name="Discord Logos">
      <g
         id="Discord_Logo_-_Large_-_White"
         data-name="Discord Logo - Large - White">
        <path
           class="cls-1"
           d="M 107.7,8.07 C 99.346752,4.2456795 90.528332,1.532578 81.47,0 80.230455,2.2158824 79.108891,4.4957288 78.11,6.83 68.461134,5.3760198 58.648866,5.3760198 49,6.83 48.000586,4.4959691 46.879035,2.2161499 45.64,0 36.575865,1.5455201 27.75164,4.2650622 19.39,8.09 2.79,32.65 -1.71,56.6 0.54,80.21 v 0 c 9.721377,7.182582 20.602369,12.645064 32.17,16.15 2.604685,-3.503208 4.909507,-7.219692 6.89,-11.11 -3.761663,-1.404936 -7.392344,-3.138294 -10.85,-5.18 0.91,-0.66 1.8,-1.34 2.66,-2 20.369957,9.579502 43.950043,9.579502 64.32,0 0.87,0.71 1.76,1.39 2.66,2 -3.46434,2.045014 -7.101658,3.781692 -10.87,5.19 1.978064,3.888508 4.283026,7.60187 6.89,11.1 11.5775,-3.490872 22.46685,-8.950766 32.19,-16.14 v 0 C 129.24,52.84 122.09,29.11 107.7,8.07 Z"
           id="path6" />
      </g>
    </g>
  </g>
  <g
     id="g34711"
     style="fill:url(#linearGradient34750);fill-opacity:1"
     transform="translate(-30.665268)">
    <text
       xml:space="preserve"
       style="font-style:normal;font-weight:normal;font-size:34.8596px;line-height:1.25;font-family:sans-serif;fill:url(#linearGradient696);fill-opacity:1;stroke:none;stroke-width:1.45242"
       x="91.882629"
       y="108.97873"
       id="text3826"><tspan
         id="tspan3824"
         x="91.882629"
         y="108.97873"
         style="font-style:normal;font-variant:normal;font-weight:bold;font-stretch:normal;font-size:34.8596px;font-family:Tahoma;-inkscape-font-specification:'Tahoma Bold';fill:url(#linearGradient696);fill-opacity:1;stroke-width:1.45242">CMD</tspan></text>
    <text
       xml:space="preserve"
       style="font-style:normal;font-variant:normal;font-weight:bold;font-stretch:normal;font-size:34.8596px;line-height:1.25;font-family:Tahoma;-inkscape-font-specification:'Tahoma Bold';fill:url(#linearGradient698);fill-opacity:1;stroke:none"
       x="75.780487"
       y="106.48512"
       id="text23596"><tspan
         id="tspan23594"
         x="75.780487"
         y="106.48512"
         style="font-size:34.8596px;fill:url(#linearGradient698);fill-opacity:1">/</tspan></text>
  </g>
</svg>
