<?xml version="1.0" encoding="UTF-8" standalone="no"?>
<svg
        viewBox="0 0 127.13886 96.359375"
        version="1.1"
        id="svg11"
        width="127.13885"
        height="96.359375"
        sodipodi:docname="logo-transparent.svg"
        inkscape:version="1.2.2 (732a01da63, 2022-12-09)"
        xmlns:inkscape="http://www.inkscape.org/namespaces/inkscape"
        xmlns:sodipodi="http://sodipodi.sourceforge.net/DTD/sodipodi-0.dtd"
        xmlns:xlink="http://www.w3.org/1999/xlink"
        xmlns="http://www.w3.org/2000/svg"
>
  <sodipodi:namedview
     id="namedview32"
     pagecolor="#ffffff"
     bordercolor="#666666"
     borderopacity="1.0"
     inkscape:showpageshadow="2"
     inkscape:pageopacity="0.0"
     inkscape:pagecheckerboard="0"
     inkscape:deskcolor="#d1d1d1"
     showgrid="false"
     inkscape:zoom="5.3489583"
     inkscape:cx="87.306719"
     inkscape:cy="96"
     inkscape:window-width="2560"
     inkscape:window-height="1351"
     inkscape:window-x="-9"
     inkscape:window-y="-9"
     inkscape:window-maximized="1"
     inkscape:current-layer="svg11" />
  <defs
     id="defs4">
    <linearGradient
       id="Deg_text">
      <stop
         style="stop-color:#3465be;stop-opacity:1;"
         offset="0"
         id="stop13547" />
      <stop
         style="stop-color:#362f94;stop-opacity:1;"
         offset="0.34721336"
         id="stop13549" />
      <stop
         style="stop-color:#3465be;stop-opacity:1;"
         offset="0.65274751"
         id="stop13551" />
      <stop
         style="stop-color:#362f94;stop-opacity:1;"
         offset="1"
         id="stop13553" />
    </linearGradient>
    <linearGradient
       id="Deg_back">
      <stop
         style="stop-color:#3465be;stop-opacity:1;"
         offset="0"
         id="stop28307" />
      <stop
         style="stop-color:#362f94;stop-opacity:1;"
         offset="0.34721336"
         id="stop962" />
      <stop
         style="stop-color:#3465be;stop-opacity:1;"
         offset="0.65274751"
         id="stop964" />
      <stop
         style="stop-color:#362f94;stop-opacity:1;"
         offset="1"
         id="stop28309" />
    </linearGradient>
    <linearGradient
       id="linearGradient28249">
      <stop
         style="stop-color:#000000;stop-opacity:1;"
         offset="0"
         id="stop28247" />
    </linearGradient>
    <style
       id="style2">.cls-1{fill:#fff;}</style>
    <linearGradient
       xlink:href="#Deg_back"
       id="linearGradient13545"
       x1="0.17677669"
       y1="0.18539083"
       x2="169.06905"
       y2="128.17172"
       gradientUnits="userSpaceOnUse"
       gradientTransform="matrix(1.4999331,0,0,1.4999331,-30.665268,0)" />
    <linearGradient
       xlink:href="#Deg_text"
       id="linearGradient34750"
       x1="77.789001"
       y1="80.000008"
       x2="171.54227"
       y2="111.75001"
       gradientUnits="userSpaceOnUse" />
    <linearGradient
       xlink:href="#Deg_text"
       id="linearGradient696"
       gradientUnits="userSpaceOnUse"
       x1="77.789001"
       y1="80.000008"
       x2="171.54227"
       y2="111.75001" />
    <linearGradient
       xlink:href="#Deg_text"
       id="linearGradient698"
       gradientUnits="userSpaceOnUse"
       x1="77.789001"
       y1="80.000008"
       x2="171.54227"
       y2="111.75001" />
  </defs>
  <g
     id="Discord_Logo_-_Large_-_White"
     data-name="Discord Logo - Large - White"
     transform="translate(-0.00100182,-3.125e-4)">
    <path
       id="path6"
       class="cls-1"
       d="M 45.640538,3.125e-4 C 36.576421,1.5458296 27.75216,4.2652262 19.390538,8.0901562 2.7905702,32.650107 -1.7090674,56.599343 0.54092813,80.209297 10.262285,87.391865 21.143243,92.854758 32.71085,96.359688 c 2.604679,-3.503202 4.908183,-7.219075 6.888672,-11.109375 -3.761655,-1.404934 -7.391961,-3.137986 -10.849609,-5.179688 0.909998,-0.659998 1.800158,-1.340002 2.660156,-2 20.369915,9.579482 43.950397,9.579482 64.320312,0 0.869998,0.709998 1.760158,1.390002 2.660156,2 -3.464332,2.04501 -7.102759,3.781149 -10.871093,5.189453 1.97806,3.8885 4.283655,7.601486 6.890625,11.09961 11.577481,-3.490866 22.466321,-8.951407 32.189451,-16.140625 2.64,-27.379946 -4.51041,-51.10848 -18.90039,-72.148438 C 99.345902,4.2463121 90.52893,1.5328875 81.470616,3.125e-4 c -1.239543,2.215878 -2.362438,4.4958117 -3.361329,6.8300781 -9.648846,-1.4539772 -19.460528,-1.4539772 -29.109374,0 C 48.000499,4.4963645 46.879569,2.216458 45.640538,3.125e-4 Z M 24.736241,32.18 h 4.935547 l -10.091797,32 h -4.886719 z m 17.617187,3.140625 c 1.009928,0 1.916984,0.05645 2.722656,0.169922 0.805674,0.113475 1.578818,0.272308 2.316407,0.476562 0.578722,0.170213 1.207821,0.402231 1.888672,0.697266 0.680849,0.295035 1.230533,0.551975 1.65039,0.767578 v 6.041016 h -0.646484 c -0.306383,-0.272341 -0.691003,-0.594283 -1.15625,-0.96875 -0.465248,-0.385816 -0.993914,-0.761881 -1.583985,-1.125 -0.590069,-0.363121 -1.242138,-0.668324 -1.957031,-0.917969 -0.703545,-0.260993 -1.44126,-0.392578 -2.21289,-0.392578 -0.919149,0 -1.76548,0.148325 -2.53711,0.443359 -0.760282,0.283688 -1.485537,0.783155 -2.177734,1.498047 -0.635461,0.646807 -1.157897,1.520386 -1.566406,2.621094 -0.397164,1.100708 -0.595704,2.400567 -0.595704,3.898437 0,1.577304 0.211002,2.904409 0.63086,3.982422 0.419857,1.066666 0.96954,1.929736 1.65039,2.587891 0.658156,0.63546 1.38964,1.095218 2.195313,1.378906 0.81702,0.283688 1.62792,0.423828 2.433594,0.423828 0.839715,0 1.640108,-0.135863 2.40039,-0.408203 0.760283,-0.283688 1.401844,-0.595121 1.923828,-0.935547 0.567376,-0.351772 1.066843,-0.709146 1.498047,-1.072265 0.431206,-0.363121 0.805317,-0.687016 1.123047,-0.970704 h 0.578125 v 5.957032 c -0.465247,0.215603 -1.004423,0.466312 -1.617187,0.75 -0.612766,0.272339 -1.241865,0.504359 -1.888672,0.697265 -0.794325,0.238298 -1.538272,0.4201 -2.230469,0.544922 -0.692197,0.124823 -1.645192,0.1875 -2.859375,0.1875 -3.801413,0 -6.81923,-1.147257 -9.054687,-3.439453 -2.235459,-2.303543 -3.353516,-5.536638 -3.353516,-9.701172 0,-4.017016 1.118057,-7.216634 3.353516,-9.599609 2.246804,-2.394324 5.270852,-3.591797 9.072265,-3.591797 z m 12.324219,0.494141 h 7.335937 l 5.617188,12.509765 5.599609,-12.509765 h 7.335938 v 25.34375 H 74.234287 V 44.359687 L 69.621006,55.201484 H 65.281162 L 60.667881,44.359687 v 16.798829 h -5.990234 z m 31.130859,0 h 7.863281 c 1.781559,0 3.451251,0.112894 5.00586,0.339843 1.554613,0.226951 3.011353,0.776633 4.373043,1.650391 1.66809,1.066665 2.98468,2.508618 3.94922,4.324219 0.96454,1.804253 1.44727,3.931752 1.44727,6.382812 0,2.360281 -0.51621,4.477271 -1.54883,6.34961 -1.03262,1.86099 -2.33676,3.290482 -3.91406,4.289062 -1.31631,0.851063 -2.75203,1.400745 -4.306643,1.650391 -1.543261,0.238298 -3.189985,0.357422 -4.9375,0.357422 h -7.931641 z m 6.367188,4.730468 v 15.865235 h 0.11914 c 1.429786,0 2.631537,-0.02297 3.607422,-0.06836 0.987233,-0.05674 1.923489,-0.363893 2.808594,-0.919922 1.04397,-0.658154 1.83813,-1.56521 2.38281,-2.722656 0.54468,-1.157445 0.81641,-2.570198 0.81641,-4.238281 0,-1.668083 -0.28847,-3.093297 -0.86719,-4.273438 -0.56737,-1.191487 -1.447183,-2.121513 -2.638671,-2.791015 -0.86241,-0.476596 -1.769466,-0.737813 -2.722656,-0.783203 -0.941843,-0.04539 -2.070408,-0.06836 -3.386719,-0.06836 z" />
  </g>
</svg>
